<svg xmlns="http://www.w3.org/2000/svg" xmlns:xlink="http://www.w3.org/1999/xlink" width="1272" height="284pt" viewBox="0 0 954 284"><g id="graph0" class="graph" transform="scale(1 1) rotate(0) translate(4 280)"><title>dependencies</title><polygon fill="#fff" stroke="transparent" points="-4 4 -4 -280 950 -280 950 4 -4 4"/><text x="452.009" y="-42.4" fill="#000" font-family="sans-serif" font-size="14" font-weight="bold" text-anchor="start">Legend</text><polygon fill="#ffffb3" stroke="transparent" points="239 -10 239 -30 259 -30 259 -10 239 -10"/><text x="262.629" y="-15.4" fill="#000" font-family="sans-serif" font-size="14" text-anchor="start">Declarations</text><polygon fill="#8dd3c7" stroke="transparent" points="352 -10 352 -30 372 -30 372 -10 352 -10"/><text x="375.725" y="-15.4" fill="#000" font-family="sans-serif" font-size="14" text-anchor="start">Module</text><polygon fill="#80b1d3" stroke="transparent" points="438 -10 438 -30 458 -30 458 -10 438 -10"/><text x="461.781" y="-15.4" fill="#000" font-family="sans-serif" font-size="14" text-anchor="start">Bootstrap</text><polygon fill="#fdb462" stroke="transparent" points="535 -10 535 -30 555 -30 555 -10 535 -10"/><text x="558.673" y="-15.4" fill="#000" font-family="sans-serif" font-size="14" text-anchor="start">Providers</text><polygon fill="#fb8072" stroke="transparent" points="631 -10 631 -30 651 -30 651 -10 631 -10"/><text x="654.726" y="-15.4" fill="#000" font-family="sans-serif" font-size="14" text-anchor="start">Exports</text><g id="clust1" class="cluster"><title>cluster_NgxPersianModule</title><polygon fill="none" stroke="#000" stroke-dasharray="1 5" points="8 -70 8 -268 938 -268 938 -70 8 -70"/></g><g id="clust2" class="cluster"><title>cluster_NgxPersianModule_declarations</title><polygon fill="none" stroke="#000" points="28 -78 28 -130 918 -130 918 -78 28 -78"/></g><g id="clust11" class="cluster"><title>cluster_NgxPersianModule_exports</title><polygon fill="none" stroke="#000" points="16 -208 16 -260 930 -260 930 -208 16 -208"/></g><g id="node1" class="node"><title>EnNumPipe</title><polygon fill="#ffffb3" stroke="#000" points="910.439 -122 825.561 -122 825.561 -86 910.439 -86 910.439 -122"/><text x="868" y="-99.8" fill="#000" font-family="Times,serif" font-size="14" text-anchor="middle">EnNumPipe</text></g><g id="node8" class="node"><title>NgxPersianModule</title><polygon fill="#8dd3c7" stroke="#000" points="609.364 -187 606.364 -191 585.364 -191 582.364 -187 484.636 -187 484.636 -151 609.364 -151 609.364 -187"/><text x="547" y="-164.8" fill="#000" font-family="Times,serif" font-size="14" text-anchor="middle">NgxPersianModule</text></g><g id="edge1" class="edge"><title>EnNumPipe-&gt;NgxPersianModule</title><path fill="none" stroke="#000" d="M829.9062,-122.2667C829.9062,-140.5552 829.9062,-166 829.9062,-166 829.9062,-166 619.4352,-166 619.4352,-166"/><polygon fill="#000" stroke="#000" points="619.435 -162.5 609.435 -166 619.435 -169.5 619.435 -162.5"/></g><g id="node2" class="node"><title>FaNumPipe</title><polygon fill="#ffffb3" stroke="#000" points="807.382 -122 724.618 -122 724.618 -86 807.382 -86 807.382 -122"/><text x="766" y="-99.8" fill="#000" font-family="Times,serif" font-size="14" text-anchor="middle">FaNumPipe</text></g><g id="edge2" class="edge"><title>FaNumPipe-&gt;NgxPersianModule</title><path fill="none" stroke="#000" d="M781.5637,-122.0091C781.5637,-138.0494 781.5637,-159 781.5637,-159 781.5637,-159 619.5506,-159 619.5506,-159"/><polygon fill="#000" stroke="#000" points="619.551 -155.5 609.551 -159 619.551 -162.5 619.551 -155.5"/></g><g id="node3" class="node"><title>IRCurrencyPipe</title><polygon fill="#ffffb3" stroke="#000" points="706.472 -122 599.528 -122 599.528 -86 706.472 -86 706.472 -122"/><text x="653" y="-99.8" fill="#000" font-family="Times,serif" font-size="14" text-anchor="middle">IRCurrencyPipe</text></g><g id="edge3" class="edge"><title>IRCurrencyPipe-&gt;NgxPersianModule</title><path fill="none" stroke="#000" d="M604.473,-122.1061C604.473,-122.1061 604.473,-140.991 604.473,-140.991"/><polygon fill="#000" stroke="#000" points="600.973 -140.991 604.473 -150.991 607.973 -140.991 600.973 -140.991"/></g><g id="node4" class="node"><title>JdatePipe</title><polygon fill="#ffffb3" stroke="#000" points="581.653 -122 512.347 -122 512.347 -86 581.653 -86 581.653 -122"/><text x="547" y="-99.8" fill="#000" font-family="Times,serif" font-size="14" text-anchor="middle">JdatePipe</text></g><g id="edge4" class="edge"><title>JdatePipe-&gt;NgxPersianModule</title><path fill="none" stroke="#000" d="M547,-122.1061C547,-122.1061 547,-140.991 547,-140.991"/><polygon fill="#000" stroke="#000" points="543.5 -140.991 547 -150.991 550.5 -140.991 543.5 -140.991"/></g><g id="node5" class="node"><title>NationalCodePipe</title><polygon fill="#ffffb3" stroke="#000" points="494.147 -122 375.853 -122 375.853 -86 494.147 -86 494.147 -122"/><text x="435" y="-99.8" fill="#000" font-family="Times,serif" font-size="14" text-anchor="middle">NationalCodePipe</text></g><g id="edge5" class="edge"><title>NationalCodePipe-&gt;NgxPersianModule</title><path fill="none" stroke="#000" d="M489.4457,-122.1061C489.4457,-122.1061 489.4457,-140.991 489.4457,-140.991"/><polygon fill="#000" stroke="#000" points="485.946 -140.991 489.446 -150.991 492.946 -140.991 485.946 -140.991"/></g><g id="node6" class="node"><title>PersianLetterDirective</title><polygon fill="#ffffb3" stroke="#000" points="357.214 -122 214.786 -122 214.786 -86 357.214 -86 357.214 -122"/><text x="286" y="-99.8" fill="#000" font-family="Times,serif" font-size="14" text-anchor="middle">PersianLetterDirective</text></g><g id="edge6" class="edge"><title>PersianLetterDirective-&gt;NgxPersianModule</title><path fill="none" stroke="#000" d="M306.2857,-122.0091C306.2857,-138.0494 306.2857,-159 306.2857,-159 306.2857,-159 474.3835,-159 474.3835,-159"/><polygon fill="#000" stroke="#000" points="474.384 -162.5 484.384 -159 474.384 -155.5 474.384 -162.5"/></g><g id="node7" class="node"><title>PersianNumbersDirective</title><polygon fill="#ffffb3" stroke="#000" points="196.108 -122 35.892 -122 35.892 -86 196.108 -86 196.108 -122"/><text x="116" y="-99.8" fill="#000" font-family="Times,serif" font-size="14" text-anchor="middle">PersianNumbersDirective</text></g><g id="edge7" class="edge"><title>PersianNumbersDirective-&gt;NgxPersianModule</title><path fill="none" stroke="#000" d="M192.1787,-122.2667C192.1787,-140.5552 192.1787,-166 192.1787,-166 192.1787,-166 474.3818,-166 474.3818,-166"/><polygon fill="#000" stroke="#000" points="474.382 -169.5 484.382 -166 474.382 -162.5 474.382 -169.5"/></g><g id="node9" class="node"><title>EnNumPipe</title><polygon fill="#fb8072" stroke="#000" points="921.938 -252 834.062 -252 834.062 -216 921.938 -216 921.938 -252"/><text x="878" y="-229.8" fill="#000" font-family="Times,serif" font-size="14" text-anchor="middle">EnNumPipe</text></g><g id="edge8" class="edge"><title>NgxPersianModule-&gt;EnNumPipe</title><path fill="none" stroke="#000" stroke-dasharray="5 2" d="M609.6874,-173C704.1649,-173 872.125,-173 872.125,-173 872.125,-173 872.125,-205.698 872.125,-205.698"/><polygon fill="#000" stroke="#000" points="868.625 -205.698 872.125 -215.698 875.625 -205.698 868.625 -205.698"/></g><g id="node10" class="node"><title>FaNumPipe</title><polygon fill="#fb8072" stroke="#000" points="816.383 -252 729.617 -252 729.617 -216 816.383 -216 816.383 -252"/><text x="773" y="-229.8" fill="#000" font-family="Times,serif" font-size="14" text-anchor="middle">FaNumPipe</text></g><g id="edge9" class="edge"><title>NgxPersianModule-&gt;FaNumPipe</title><path fill="none" stroke="#000" stroke-dasharray="5 2" d="M609.6128,-180C671.0826,-180 755.6863,-180 755.6863,-180 755.6863,-180 755.6863,-205.7181 755.6863,-205.7181"/><polygon fill="#000" stroke="#000" points="752.186 -205.718 755.686 -215.718 759.186 -205.718 752.186 -205.718"/></g><g id="node11" class="node"><title>IRCurrencyPipe</title><polygon fill="#fb8072" stroke="#000" points="712.473 -252 601.527 -252 601.527 -216 712.473 -216 712.473 -252"/><text x="657" y="-229.8" fill="#000" font-family="Times,serif" font-size="14" text-anchor="middle">IRCurrencyPipe</text></g><g id="edge10" class="edge"><title>NgxPersianModule-&gt;IRCurrencyPipe</title><path fill="none" stroke="#000" stroke-dasharray="5 2" d="M605.598,-187.1061C605.598,-187.1061 605.598,-205.991 605.598,-205.991"/><polygon fill="#000" stroke="#000" points="602.098 -205.991 605.598 -215.991 609.098 -205.991 602.098 -205.991"/></g><g id="node12" class="node"><title>JdatePipe</title><polygon fill="#fb8072" stroke="#000" points="583.652 -252 510.348 -252 510.348 -216 583.652 -216 583.652 -252"/><text x="547" y="-229.8" fill="#000" font-family="Times,serif" font-size="14" text-anchor="middle">JdatePipe</text></g><g id="edge11" class="edge"><title>NgxPersianModule-&gt;JdatePipe</title><path fill="none" stroke="#000" stroke-dasharray="5 2" d="M547,-187.1061C547,-187.1061 547,-205.991 547,-205.991"/><polygon fill="#000" stroke="#000" points="543.5 -205.991 547 -215.991 550.5 -205.991 543.5 -205.991"/></g><g id="node13" class="node"><title>NationalCodePipe</title><polygon fill="#fb8072" stroke="#000" points="492.147 -252 369.853 -252 369.853 -216 492.147 -216 492.147 -252"/><text x="431" y="-229.8" fill="#000" font-family="Times,serif" font-size="14" text-anchor="middle">NationalCodePipe</text></g><g id="edge12" class="edge"><title>NgxPersianModule-&gt;NationalCodePipe</title><path fill="none" stroke="#000" stroke-dasharray="5 2" d="M488.3207,-187.1061C488.3207,-187.1061 488.3207,-205.991 488.3207,-205.991"/><polygon fill="#000" stroke="#000" points="484.821 -205.991 488.321 -215.991 491.821 -205.991 484.821 -205.991"/></g><g id="node14" class="node"><title>PersianLetterDirective</title><polygon fill="#fb8072" stroke="#000" points="352.214 -252 205.786 -252 205.786 -216 352.214 -216 352.214 -252"/><text x="279" y="-229.8" fill="#000" font-family="Times,serif" font-size="14" text-anchor="middle">PersianLetterDirective</text></g><g id="edge13" class="edge"><title>NgxPersianModule-&gt;PersianLetterDirective</title><path fill="none" stroke="#000" stroke-dasharray="5 2" d="M484.4726,-180C400.1625,-180 260.4643,-180 260.4643,-180 260.4643,-180 260.4643,-205.7181 260.4643,-205.7181"/><polygon fill="#000" stroke="#000" points="256.964 -205.718 260.464 -215.718 263.964 -205.718 256.964 -205.718"/></g><g id="node15" class="node"><title>PersianNumbersDirective</title><polygon fill="#fb8072" stroke="#000" points="188.107 -252 23.893 -252 23.893 -216 188.107 -216 188.107 -252"/><text x="106" y="-229.8" fill="#000" font-family="Times,serif" font-size="14" text-anchor="middle">PersianNumbersDirective</text></g><g id="edge14" class="edge"><title>NgxPersianModule-&gt;PersianNumbersDirective</title><path fill="none" stroke="#000" stroke-dasharray="5 2" d="M484.1938,-173C363.6943,-173 111.875,-173 111.875,-173 111.875,-173 111.875,-205.698 111.875,-205.698"/><polygon fill="#000" stroke="#000" points="108.375 -205.698 111.875 -215.698 115.375 -205.698 108.375 -205.698"/></g></g></svg>